<svg height="512pt" viewBox="0 -2 512 512" width="512pt" xmlns="http://www.w3.org/2000/svg"><path d="m448 508.878906-148.59375-92.878906h-267.40625c-17.671875 0-32-14.328125-32-32v-352c0-17.671875 14.328125-32 32-32h448c17.671875 0 32 14.328125 32 32v352c0 17.671875-14.328125 32-32 32h-32zm0 0" fill="#77959e"/><g fill="#fff"><path d="m144 256h288c8.835938 0 16 7.164062 16 16s-7.164062 16-16 16h-288c-8.835938 0-16-7.164062-16-16s7.164062-16 16-16zm0 0"/><path d="m144 192h288c8.835938 0 16 7.164062 16 16s-7.164062 16-16 16h-288c-8.835938 0-16-7.164062-16-16s7.164062-16 16-16zm0 0"/><path d="m144 128h288c8.835938 0 16 7.164062 16 16s-7.164062 16-16 16h-288c-8.835938 0-16-7.164062-16-16s7.164062-16 16-16zm0 0"/><path d="m64 128h32v32h-32zm0 0"/><path d="m64 192h32v32h-32zm0 0"/><path d="m64 256h32v32h-32zm0 0"/></g><path d="m144 64.011719c6.25-6.25 16.378906-6.25 22.628906 0l257.375 257.375c6.246094 6.25 6.246094 16.378906 0 22.628906-6.25 6.246094-16.378906 6.246094-22.628906 0l-257.375-257.375c-6.25-6.25-6.25-16.378906 0-22.628906zm0 0" fill="#e76e54"/></svg>